<svg width="41" height="40" viewBox="0 0 41 40" fill="none" xmlns="http://www.w3.org/2000/svg">
<g id="cursor-box">
<path id="Icon" d="M35.5 15.8333V13C35.5 10.1997 35.5 8.79961 34.955 7.73005C34.4757 6.78924 33.7108 6.02433 32.77 5.54497C31.7004 5 30.3003 5 27.5 5H13.5C10.6997 5 9.29961 5 8.23005 5.54497C7.28924 6.02433 6.52433 6.78924 6.04497 7.73005C5.5 8.79961 5.5 10.1997 5.5 13V27C5.5 29.8003 5.5 31.2004 6.04497 32.27C6.52433 33.2108 7.28924 33.9757 8.23005 34.455C9.29961 35 10.6997 35 13.5 35H16.3333M29.477 29.5189L26.6465 34.7755C26.1838 35.6347 25.9525 36.0643 25.6706 36.1764C25.4258 36.2738 25.1494 36.2496 24.9252 36.1113C24.6669 35.9521 24.5135 35.4888 24.2068 34.5624L19.6673 20.8522C19.3987 20.0409 19.2644 19.6353 19.361 19.3652C19.445 19.1301 19.6301 18.945 19.8651 18.861C20.1353 18.7644 20.5409 18.8987 21.3522 19.1673L35.0624 23.7068C35.9888 24.0136 36.452 24.167 36.6113 24.4252C36.7496 24.6494 36.7737 24.9258 36.6764 25.1706C36.5643 25.4526 36.1346 25.6839 35.2754 26.1466L30.0188 28.977C29.8879 29.0475 29.8225 29.0828 29.7652 29.1281C29.7143 29.1683 29.6683 29.2143 29.6281 29.2652C29.5828 29.3225 29.5475 29.3879 29.477 29.5189Z" stroke="#643DFF" strokeWidth="3.33333" stroke-linecap="round" stroke-linejoin="round"/>
</g>
</svg>
