<svg width="41" height="40" viewBox="0 0 41 40" fill="none" xmlns="http://www.w3.org/2000/svg">
<g id="coins-hand">
<path id="Icon" d="M23.0491 13.9199C22.0951 14.6001 20.9276 15.0002 19.6667 15.0002C16.445 15.0002 13.8333 12.3885 13.8333 9.16683C13.8333 5.94517 16.445 3.3335 19.6667 3.3335C21.755 3.3335 23.587 4.43086 24.6175 6.0804M10.5 33.4787H14.8505C15.4177 33.4787 15.9815 33.5462 16.5313 33.6812L21.1281 34.7983C22.1256 35.0413 23.1646 35.0649 24.1724 34.8692L29.255 33.8804C30.5976 33.6188 31.8326 32.9759 32.8006 32.0343L36.3965 28.5363C37.4234 27.5391 37.4234 25.9209 36.3965 24.9219C35.4719 24.0226 34.0079 23.9213 32.9619 24.684L28.771 27.7416C28.1708 28.1803 27.4405 28.4165 26.6894 28.4165H22.6425L25.2184 28.4164C26.6703 28.4164 27.8464 27.2724 27.8464 25.86V25.3487C27.8464 24.176 27.0259 23.1534 25.8568 22.8699L21.881 21.9031C21.234 21.7461 20.5713 21.6668 19.9052 21.6668C18.2972 21.6668 15.3865 22.9982 15.3865 22.9982L10.5 25.0416M33.8333 10.8335C33.8333 14.0552 31.2217 16.6668 28 16.6668C24.7783 16.6668 22.1667 14.0552 22.1667 10.8335C22.1667 7.61183 24.7783 5.00016 28 5.00016C31.2217 5.00016 33.8333 7.61183 33.8333 10.8335ZM3.83333 24.3335L3.83333 34.0002C3.83333 34.9336 3.83333 35.4003 4.01498 35.7568C4.17477 36.0704 4.42974 36.3254 4.74334 36.4852C5.09986 36.6668 5.56657 36.6668 6.49999 36.6668H7.83333C8.76675 36.6668 9.23346 36.6668 9.58998 36.4852C9.90358 36.3254 10.1585 36.0704 10.3183 35.7568C10.5 35.4003 10.5 34.9336 10.5 34.0002V24.3335C10.5 23.4001 10.5 22.9334 10.3183 22.5768C10.1585 22.2632 9.90358 22.0083 9.58998 21.8485C9.23346 21.6668 8.76675 21.6668 7.83333 21.6668L6.5 21.6668C5.56657 21.6668 5.09986 21.6668 4.74334 21.8485C4.42974 22.0083 4.17477 22.2632 4.01498 22.5768C3.83333 22.9334 3.83333 23.4001 3.83333 24.3335Z" stroke="#643DFF" stroke-width="3.33333" stroke-linecap="round" stroke-linejoin="round"/>
</g>
</svg>
