<svg width="56" height="56" viewBox="0 0 56 56" fill="none" xmlns="http://www.w3.org/2000/svg">
<circle cx="28" cy="28" r="27.5" fill="black" stroke="#A7FFA7"/>
<g clip-path="url(#clip0_56_29)">
<path d="M25 34.9999C20 36.4999 20 32.4999 18 31.9999M32 37.9999V34.1299C32.0375 33.6531 31.9731 33.1737 31.811 32.7237C31.6489 32.2737 31.3929 31.8634 31.06 31.5199C34.2 31.1699 37.5 29.9799 37.5 24.5199C37.4997 23.1238 36.9627 21.7811 36 20.7699C36.4559 19.5484 36.4236 18.1983 35.91 16.9999C35.91 16.9999 34.73 16.6499 32 18.4799C29.708 17.8588 27.292 17.8588 25 18.4799C22.27 16.6499 21.09 16.9999 21.09 16.9999C20.5764 18.1983 20.5441 19.5484 21 20.7699C20.0301 21.7886 19.4925 23.1434 19.5 24.5499C19.5 29.9699 22.8 31.1599 25.94 31.5499C25.611 31.8899 25.3573 32.2953 25.1953 32.7399C25.0334 33.1844 24.9668 33.658 25 34.1299V37.9999" stroke="#A7FFA7" stroke-width="2" stroke-linecap="round" stroke-linejoin="round"/>
</g>
<defs>
<clipPath id="clip0_56_29">
<rect width="24" height="24" fill="white" transform="translate(16 16)"/>
</clipPath>
</defs>
</svg>
