<svg width="56" height="56" viewBox="0 0 56 56" fill="none" xmlns="http://www.w3.org/2000/svg">
<circle cx="28" cy="28" r="27.5" fill="black" stroke="#A7FFA7"/>
<path d="M33 18H23C20.2386 18 18 20.2386 18 23V33C18 35.7614 20.2386 38 23 38H33C35.7614 38 38 35.7614 38 33V23C38 20.2386 35.7614 18 33 18Z" stroke="#A7FFA7" stroke-width="2" stroke-linecap="round" stroke-linejoin="round"/>
<path d="M32 27.3698C32.1234 28.2021 31.9813 29.052 31.5938 29.7988C31.2063 30.5456 30.5932 31.1512 29.8416 31.5295C29.0901 31.9077 28.2385 32.0394 27.4078 31.9057C26.5771 31.7721 25.8098 31.3799 25.2149 30.785C24.6199 30.1901 24.2277 29.4227 24.0941 28.592C23.9604 27.7614 24.0921 26.9097 24.4703 26.1582C24.8486 25.4067 25.4542 24.7936 26.201 24.4061C26.9478 24.0186 27.7978 23.8764 28.63 23.9998C29.4789 24.1257 30.2649 24.5213 30.8717 25.1281C31.4785 25.735 31.8741 26.5209 32 27.3698Z" stroke="#A7FFA7" stroke-width="2" stroke-linecap="round" stroke-linejoin="round"/>
<path d="M33.5 22.5H33.51" stroke="#A7FFA7" stroke-width="2" stroke-linecap="round" stroke-linejoin="round"/>
</svg>
