<svg width="40" height="40" viewBox="0 0 40 40" fill="none" xmlns="http://www.w3.org/2000/svg">
<g id="ticket-01">
<path id="Icon" d="M16.6667 13.3332V11.6665M16.6667 20.8332V19.1665M16.6667 28.3332V26.6665M8.66668 6.6665H31.3333C33.2002 6.6665 34.1336 6.6665 34.8466 7.02982C35.4739 7.34939 35.9838 7.85933 36.3034 8.48654C36.6667 9.19957 36.6667 10.133 36.6667 11.9998V14.1665C33.445 14.1665 30.8333 16.7782 30.8333 19.9998C30.8333 23.2215 33.445 25.8332 36.6667 25.8332V27.9998C36.6667 29.8667 36.6667 30.8001 36.3034 31.5131C35.9838 32.1403 35.4739 32.6503 34.8466 32.9699C34.1336 33.3332 33.2002 33.3332 31.3333 33.3332H8.66668C6.79984 33.3332 5.86641 33.3332 5.15338 32.9699C4.52617 32.6503 4.01623 32.1403 3.69666 31.5131C3.33334 30.8001 3.33334 29.8667 3.33334 27.9998V25.8332C6.555 25.8332 9.16668 23.2215 9.16668 19.9998C9.16668 16.7782 6.555 14.1665 3.33334 14.1665V11.9998C3.33334 10.133 3.33334 9.19957 3.69666 8.48654C4.01623 7.85933 4.52617 7.34939 5.15338 7.02982C5.86641 6.6665 6.79984 6.6665 8.66668 6.6665Z" stroke="#643DFF" stroke-width="2" stroke-linecap="round" stroke-linejoin="round"/>
</g>
</svg>
