<svg width="66" height="66" viewBox="0 0 66 66" fill="none" xmlns="http://www.w3.org/2000/svg">
<g id="QR" clip-path="url(#clip0_27_1588)">
<g id="Group">
<path id="Vector" d="M13.819 5.91568H6.0824V13.6522H13.819V5.91568Z" fill="#F7F8F9"/>
<path id="Vector_2" d="M18.9457 0.699982H0.866699V18.779H18.9457V0.699982ZM16.3514 16.1847H3.46488V3.29817H16.3514V16.1847Z" fill="#F7F8F9"/>
<path id="Vector_3" d="M24.204 5.96981H26.8099V3.45669H29.4119V5.96981H32.0256V3.35616H29.5047V0.699982H21.7256V1.98361V3.45669V8.64919H24.204V5.96981Z" fill="#F7F8F9"/>
<path id="Vector_4" d="M24.204 16.3857H21.6406V18.9491H24.204V16.3857Z" fill="#F7F8F9"/>
<path id="Vector_5" d="M3.43009 21.5589H0.866699V24.1223H3.43009V21.5589Z" fill="#F7F8F9"/>
<path id="Vector_6" d="M44.8928 5.96979H42.3913V8.62984H44.8928V5.96979Z" fill="#F7F8F9"/>
<path id="Vector_7" d="M44.8928 11.2164H42.3913V18.8873H44.8928V11.2164Z" fill="#F7F8F9"/>
<path id="Vector_8" d="M60.4703 5.95822H52.7144V13.7141H60.4703V5.95822Z" fill="#F7F8F9"/>
<path id="Vector_9" d="M65.5778 0.839172H47.5838V19.0381H65.5778V0.839172ZM62.8404 16.2968H50.3289V3.58041H62.8404V16.2968Z" fill="#F7F8F9"/>
<path id="Vector_10" d="M13.8151 52.5902H6.14426V60.2611H13.8151V52.5902Z" fill="#F7F8F9"/>
<path id="Vector_11" d="M0.866699 65.5H19.0733V47.4635H0.866699V65.5ZM3.46489 50.0578H16.479V62.9018H3.46489V50.0578Z" fill="#F7F8F9"/>
<path id="Vector_12" d="M34.589 57.6552H31.9831V60.2611H34.589V57.6552Z" fill="#F7F8F9"/>
<path id="Vector_13" d="M29.3965 62.9675H21.6406V65.5H29.3965V62.9675Z" fill="#F7F8F9"/>
<path id="Vector_14" d="M60.4703 26.6007V24.1223H65.6667V21.5589H57.8644V24.1223H55.3629V21.5589H52.7144V24.1223H50.1085V26.5272H47.5877V24.1223H47.4175V21.5589H39.7235V16.3858H37.1601V18.9491H34.5967V16.2118H37.1601V13.7334H34.5967V11.2164H37.1601V13.718H39.7235V11.1546H37.1601V8.48294H39.7235V5.91955H37.1601V0.699982H34.5967V8.64919H29.4119V11.0579H21.7256V13.6638H29.5009V11.1043H32.0681V24.1185V26.5968H34.5929H39.7235V31.8125H42.2869V26.6007H47.5142V34.4223H50.1472V26.6007H57.8683V29.2878H55.2933V31.8666H52.7376V37.0127H55.2933V34.4648H57.8683V31.8666H60.3969V34.4532H62.9951V31.9594H65.5816V26.7978H62.9564V31.855H60.4471V26.6007H60.4703ZM37.1562 24.1223H34.5929V21.5589H37.1562V23.0552V24.1223Z" fill="#F7F8F9"/>
<path id="Vector_15" d="M31.8864 29.2104V31.8589H26.8872V29.2839H24.0957V31.8163H21.6406V28.182V26.6006H16.4249V24.1223H26.7094V26.5117H29.3114V24.0334H26.8099V21.6169H29.4583V16.4476H26.7674V21.5589H8.73085V24.1223H13.819V29.2104H11.2981V26.6045H0.866699V28.9127V29.2104V34.4261H3.43009V29.2104H6.07854V31.7738H11.2942V34.4223H13.7416V36.9856H16.394V39.6418H19.0308V36.9856H21.6367V34.4223H24.2001V31.8898H26.7055V34.5073H34.6895V32.8796V31.8589V29.2104H31.8864ZM18.9457 36.9392H16.4404V34.4223H18.9457V36.9392ZM18.9457 31.7738H16.4249V34.3449H13.819V31.7738H16.4249V29.2104H18.9457V31.7738Z" fill="#F7F8F9"/>
<path id="Vector_16" d="M63.0299 36.9895V36.974H60.4317V34.4416H57.8528V39.5722H52.7028V42.2323H37.1137V44.699H42.372V49.9224H39.7738H37.1137V52.5129H34.5813V49.9224H31.9753V55.1034H34.5233H34.5813H37.1137V62.9366H34.5233V65.469H37.1137H39.7738V60.234H42.372V60.3152H44.8194V62.7819H42.2869V65.3994H44.9044V62.7819H50.0273V60.2456H44.9044V57.6977H50.1124V55.0802H57.8528V52.7758V52.482V49.9224H60.4317V47.3165H63.0299V44.7415H60.4317H60.1262H57.8489H57.2381H55.2701V44.699V44.4748V42.2323H57.8451V44.699H60.4239V39.5684H63.0221V44.699H65.6474V36.9895H63.0299ZM52.7028 52.482H49.8069V52.5129H44.9005V44.699H52.7028V52.482Z" fill="#F7F8F9"/>
<path id="Vector_17" d="M47.5838 36.8851V34.4223H44.8928V31.8163H42.283V34.4223H34.589V36.9895H29.3965V39.5954H26.8099V34.4223H24.204V42.182H16.4249V39.5954H13.819V36.9895H11.2942V39.5954H8.73085H8.68832V36.9895H11.2942V34.4223H3.43008V36.9895H6.0824V39.5954H3.55767V44.7686H8.73085V42.182H11.2942V44.7686H13.819H16.4249H21.6406V57.7402H24.204H26.7635V60.2031H29.3501V57.6822H26.8099V55.1343H24.204V49.9495H26.8099V55.1343H29.3965V49.9495H31.9831V47.3436H37.1214V44.7686H26.8099V47.2701V47.3436H24.204V44.7686H26.8099V42.182H31.9831V39.5954H42.283V36.9895H47.5219V39.696H42.283V42.2787H47.5838V39.8313H52.7647V36.8851H47.5838Z" fill="#F7F8F9"/>
<path id="Vector_18" d="M60.4433 49.9495V55.1072H57.8644V57.7711H60.4433V60.2611H57.8644H57.7368H55.3397V57.7711H52.7686V60.3423H55.2894V65.5H57.8644V62.8786H63.0414V65.5H65.6667V47.3436H63.0414V49.9495H60.4433Z" fill="#F7F8F9"/>
<path id="Vector_19" d="M50.124 47.3475H47.5181V49.9534H50.124V47.3475Z" fill="#F7F8F9"/>
</g>
</g>
<defs>
<clipPath id="clip0_27_1588">
<rect width="64.8" height="64.8" fill="white" transform="translate(0.866699 0.699982)"/>
</clipPath>
</defs>
</svg>
