<svg width="80" height="80" viewBox="0 0 80 80" fill="none" xmlns="http://www.w3.org/2000/svg">
<rect width="80" height="80" rx="24" fill="#643DFF" fill-opacity="0.2"/>
<path d="M28.8605 52.3975C29.8743 50.0088 32.2415 48.3335 35 48.3335H45C47.7584 48.3335 50.1256 50.0088 51.1395 52.3975M46.6666 35.8335C46.6666 39.5154 43.6819 42.5002 40 42.5002C36.3181 42.5002 33.3333 39.5154 33.3333 35.8335C33.3333 32.1516 36.3181 29.1668 40 29.1668C43.6819 29.1668 46.6666 32.1516 46.6666 35.8335ZM56.6666 40.0002C56.6666 49.2049 49.2047 56.6668 40 56.6668C30.7952 56.6668 23.3333 49.2049 23.3333 40.0002C23.3333 30.7954 30.7952 23.3335 40 23.3335C49.2047 23.3335 56.6666 30.7954 56.6666 40.0002Z" stroke="#643DFF" stroke-width="3.33333" stroke-linecap="round" stroke-linejoin="round"/>
</svg>
